<?xml version="1.0" encoding="UTF-8" standalone="no"?>
<!-- Created with Inkscape (http://www.inkscape.org/) -->

<svg
   width="700mm"
   height="700mm"
   viewBox="0 0 700 700"
   version="1.1"
   id="svg1"
   xmlns="http://www.w3.org/2000/svg"
   xmlns:svg="http://www.w3.org/2000/svg">
  <defs
     id="defs1" />
  <g
     id="layer1"
     transform="translate(-105.83333,215.37083)">
    <g
       id="g1"
       transform="translate(-13.455665,6.37217)">
      <path
         fill="#000000"
         opacity="1"
         stroke="none"
         d="m 774.85483,46.732288 c 0,112.522872 0,224.781212 0,337.059322 -203.69196,0 -407.3839,0 -611.13167,0 0,-170.31452 0,-340.648914 0,-511.06922 203.67331,0 407.40248,0 611.13167,0 0,57.87162 0,115.808468 0,174.009898 M 557.02742,281.62678 c 0.3942,-1.2591 0.79415,-2.51646 1.18155,-3.77765 1.42134,-4.62732 2.91507,-9.23419 4.22918,-13.89179 0.81817,-2.89978 -0.81978,-5.77384 -3.46474,-6.53838 -2.93664,-0.84873 -5.73726,0.55163 -6.8338,3.42622 -0.18819,0.49332 -0.34869,0.99801 -0.50419,1.50289 -2.565,8.32678 -5.1223,16.65589 -7.6909,24.98153 -5.75948,18.66832 -11.52128,37.33589 -17.28954,56.00147 -1.05741,3.4217 -2.14956,6.83263 -3.18977,10.1345 -35.2639,0 -70.23991,0 -105.5077,0 0.53944,-1.67534 0.98754,-3.16966 1.49952,-4.64172 7.60545,-21.86805 15.22674,-43.73057 22.82886,-65.59976 5.95439,-17.12899 11.87651,-34.2692 17.83257,-51.39764 9.71426,-27.93624 19.43388,-55.87063 29.17081,-83.79896 10.40223,-29.83644 20.82237,-59.666605 31.24872,-89.494598 1.18274,-3.383611 2.45573,-6.735667 3.72071,-10.194919 3.64199,0.208579 7.02508,-0.04302 10.28967,-1.367587 3.34785,-1.358394 6.16291,-3.384256 8.43007,-6.162286 2.20811,-2.7056 3.67747,-5.779587 4.34224,-9.226711 1.86854,-9.688526 -3.54087,-19.307511 -12.04143,-22.9437557 -8.61758,-3.686305 -18.93051,-1.2743 -24.63046,5.9641387 -3.03918,3.859504 -4.64497,8.306552 -4.59205,13.225227 0.0725,6.736927 3.04287,12.17009 7.90448,16.342397 -14.92266,42.716529 -29.75216,85.166264 -44.73734,128.061724 -35.2621,-96.062839 -70.37076,-191.70769 -105.3886,-287.10508 -61.70343,0 -122.95249,0 -184.21451,0 0,159.864332 0,319.53704 0,479.32045 50.09268,0 100.0441,0 150.31494,0 0,-78.96593 0,-157.76818 0,-236.5704 0.61451,0.43022 0.83548,0.89182 0.98503,1.3755 3.19772,10.34164 6.38136,20.68764 9.58,31.02904 6.47486,20.9337 12.96777,41.86185 19.43339,62.79841 7.68661,24.89022 15.34382,49.7895 23.02988,74.67991 6.38748,20.6851 12.80384,41.36133 19.18649,62.04791 0.43063,1.39571 0.68507,2.8457 1.05365,4.40682 42.60842,0 85.35424,0 128.33233,0 8.4463,-27.3813 16.89892,-54.78317 25.49094,-82.5869 m 187.06965,22.54509 c 0,16.37551 0,32.75107 0,49.27322 -15.82693,0 -31.3781,0 -46.88059,0 -5.19587,-11.59727 -13.93511,-16.96011 -24.14255,-14.89432 -9.43726,1.90995 -16.38794,10.06723 -16.87512,19.14448 -0.5715,10.64699 6.60323,19.22462 15.59041,21.4798 8.66847,2.17514 20.45375,-0.93832 25.49311,-14.61632 19.01198,0 38.11426,0 57.52888,0 0,-1.26667 0,-2.29595 0,-3.32526 0,-104.31386 0,-208.62774 0,-312.941588 0,-0.705398 0.12796,-1.444389 -0.0404,-2.107639 -0.20775,-0.818102 -0.5058,-1.710264 -1.04296,-2.328894 -1.42073,-1.636125 -4.64928,-2.116167 -6.8554,-1.140256 -2.10439,0.930933 -3.03824,2.538378 -2.79279,4.862234 0.10134,0.959226 0.0164,1.938123 0.0164,2.908075 0,84.385768 0,168.771518 0,253.686468 m -103.38503,-408.3733 c 34.36276,0 68.72552,0 103.23483,0 0,24.46876 0,48.67762 0,72.86786 -12.79035,4.46409 -16.45751,15.09299 -14.96401,23.9902033 1.58861,9.464037 9.90004,16.703307 19.54622,17.043725 10.00469,0.3530657 18.4173,-5.997233 20.97514,-15.257433 1.22512,-4.435073 1.05775,-8.9108053 -0.69646,-13.2160453 -2.61626,-6.42062 -7.44424,-10.49737 -14.07298,-12.60589 0,-27.6865 0,-55.17023 0,-82.62022 -2.0478,-1.00448 -4.05485,-1.07587 -6.08372,-1.07571 -58.10166,0.004 -116.20336,0.004 -174.30501,0.004 -0.96356,0 -1.92715,0 -3.04986,0 -1.45581,3.95353 -2.90928,7.81143 -4.29979,11.6919 -6.3527,17.72864 -12.68852,35.46334 -19.02876,53.19647 -2.19236,6.13193 -4.39375,12.26074 -6.55349,18.40418 -0.28633,0.81438 -0.4709,1.70374 -0.49427,2.56402 -0.0706,2.60124 1.49252,4.69451 3.86797,5.34335 2.38409,0.6512 5.1493,-0.4939 6.18252,-2.86172 1.19436,-2.73698 2.14667,-5.58161 3.15765,-8.39619 6.84236,-19.04972 13.67337,-38.1035 20.50557,-57.15685 1.41674,-3.95089 2.82306,-7.90548 4.25453,-11.91539 20.57389,0 40.93432,0 61.82392,0 m -24.72648,426.36502 c 0,-51.05236 3e-5,-102.10477 0,-153.15716 0,-13.66689 0,-27.33378 0,-41.00068 0,-2.48442 -0.2654,-4.93075 -1.39935,-7.18351 -2.74786,-5.45911 -8.80042,-7.93088 -14.72618,-4.73249 -2.71635,1.46617 -4.25934,3.86922 -5.14885,6.75089 -5.58001,18.07741 -11.15912,36.15507 -16.74206,54.23159 -1.13432,3.67265 -2.28333,7.34073 -3.39916,10.92605 -13.68234,-0.14947 -20.61818,9.43795 -21.90316,17.13264 -1.76199,10.55132 4.1524,19.60459 12.70828,23.03833 9.15964,3.67609 19.2931,0.58946 24.97506,-7.61188 2.77005,-3.99828 3.91517,-8.46537 3.55457,-13.25898 -0.49821,-6.62247 -3.75582,-11.78973 -9.04619,-15.79645 6.5948,-21.35013 13.14805,-42.56558 19.70127,-63.78106 0.18532,0.0283 0.37066,0.0567 0.55597,0.085 0,78.75666 0,157.51333 0,236.5082 4.40074,0 8.52625,0.0424 12.65037,-0.0153 2.63017,-0.0368 4.7611,-1.97892 5.08635,-4.45936 0.34078,-2.59887 -1.31705,-5.22132 -3.82093,-5.92701 -0.91014,-0.25652 -1.86912,-0.33986 -3.0449,-0.54364 0,-10.25954 0,-20.4678 0,-31.20523 z"
         id="path1"
         style="fill:none;stroke-width:0.264583" />
      <path
         fill="#4eced8"
         opacity="1"
         stroke="none"
         d="m 556.95773,281.82773 c -8.52233,27.60278 -16.97495,55.00465 -25.42125,82.38595 -42.97809,0 -85.72391,0 -128.33233,0 -0.36858,-1.56112 -0.62302,-3.01111 -1.05365,-4.40682 -6.38265,-20.68658 -12.79901,-41.36281 -19.18649,-62.04791 -7.68606,-24.89041 -15.34327,-49.78969 -23.02988,-74.67991 -6.46562,-20.93656 -12.95853,-41.86471 -19.43339,-62.79841 -3.19864,-10.3414 -6.38228,-20.6874 -9.58,-31.02904 -0.14955,-0.48368 -0.37052,-0.94528 -0.98503,-1.3755 0,78.80222 0,157.60447 0,236.5704 -50.27084,0 -100.22226,0 -150.31494,0 0,-159.78341 0,-319.456118 0,-479.32045 61.26202,0 122.51108,0 184.21451,0 35.01784,95.39739 70.1265,191.042241 105.3886,287.10508 14.98518,-42.89546 29.81468,-85.345195 44.73734,-128.061724 -4.86161,-4.172307 -7.83198,-9.60547 -7.90448,-16.342397 -0.0529,-4.918675 1.55287,-9.365723 4.59205,-13.225227 5.69995,-7.2384387 16.01288,-9.6504437 24.63046,-5.9641387 8.50056,3.6362447 13.90997,13.2552297 12.04143,22.9437557 -0.66477,3.447124 -2.13413,6.521111 -4.34224,9.226711 -2.26716,2.77803 -5.08222,4.803892 -8.43007,6.162286 -3.26459,1.324565 -6.64768,1.576166 -10.28967,1.367587 -1.26498,3.459252 -2.53797,6.811308 -3.72071,10.194919 -10.42635,29.827993 -20.84649,59.658158 -31.24872,89.494598 -9.73693,27.92833 -19.45655,55.86272 -29.17081,83.79896 -5.95606,17.12844 -11.87818,34.26865 -17.83257,51.39764 -7.60212,21.86919 -15.22341,43.73171 -22.82886,65.59976 -0.51198,1.47206 -0.96008,2.96638 -1.49952,4.64172 35.26779,0 70.2438,0 105.5077,0 1.04021,-3.30187 2.13236,-6.7128 3.18977,-10.1345 5.76826,-18.66558 11.53006,-37.33315 17.28954,-56.00147 2.5686,-8.32564 5.1259,-16.65475 7.6909,-24.98153 0.1555,-0.50488 0.316,-1.00957 0.50419,-1.50289 1.09654,-2.87459 3.89716,-4.27495 6.8338,-3.42622 2.64496,0.76454 4.28291,3.6386 3.46474,6.53838 -1.31411,4.6576 -2.80784,9.26447 -4.22918,13.89179 -0.3874,1.26119 -0.78735,2.51855 -1.25124,3.9786 z"
         id="path2"
         style="stroke-width:0.264583" />
      <path
         fill="#4eccd7"
         opacity="1"
         stroke="none"
         d="m 744.09707,303.90728 c 0,-84.65036 0,-169.03611 0,-253.421878 0,-0.969952 0.0849,-1.948849 -0.0164,-2.908075 -0.24546,-2.323856 0.68839,-3.931301 2.79278,-4.862234 2.20612,-0.975911 5.43467,-0.495869 6.85541,1.140256 0.53715,0.61863 0.83521,1.510792 1.04296,2.328894 0.16838,0.66325 0.0404,1.402241 0.0404,2.107639 -1.3e-4,104.313848 0,208.627728 0,312.941588 0,1.02931 0,2.05859 0,3.32526 -19.41462,0 -38.5169,0 -57.52888,0 -5.03936,13.678 -16.82464,16.79146 -25.4931,14.61632 -8.98719,-2.25518 -16.16192,-10.83281 -15.59042,-21.4798 0.48718,-9.07725 7.43786,-17.23453 16.87513,-19.14448 10.20744,-2.06579 18.94668,3.29705 24.14254,14.89432 15.50249,0 31.05367,0 46.88059,0 0,-16.52215 0,-32.89771 0,-49.53781 z"
         id="path3"
         style="stroke-width:0.264583" />
      <path
         fill="#4dcad4"
         opacity="1"
         stroke="none"
         d="m 640.44644,-104.20143 c -20.62501,0 -40.98544,0 -61.55933,0 -1.43147,4.00991 -2.83779,7.9645 -4.25453,11.91539 -6.8322,19.05335 -13.66321,38.10713 -20.50557,57.15685 -1.01098,2.81458 -1.96329,5.65921 -3.15765,8.39619 -1.03322,2.36782 -3.79843,3.51292 -6.18252,2.86172 -2.37545,-0.64884 -3.93858,-2.74211 -3.86797,-5.34335 0.0233,-0.86028 0.20794,-1.74964 0.49427,-2.56402 2.15974,-6.14344 4.36113,-12.27225 6.55349,-18.40418 6.34024,-17.73313 12.67606,-35.46783 19.02876,-53.19647 1.39051,-3.88047 2.84398,-7.73837 4.29979,-11.6919 1.12271,0 2.0863,0 3.04986,0 58.10165,-7e-5 116.20335,7.2e-4 174.30501,-0.004 2.02887,-1.6e-4 4.03592,0.0712 6.08372,1.07571 0,27.44999 0,54.93372 0,82.62022 6.62874,2.10852 11.45672,6.18527 14.07298,12.60589 1.75421,4.30524 1.92158,8.7809723 0.69646,13.2160453 -2.55784,9.2602 -10.97045,15.6104987 -20.97514,15.257433 -9.64618,-0.340418 -17.95761,-7.579688 -19.54622,-17.043725 -1.4935,-8.8972133 2.17366,-19.5261133 14.96401,-23.9902033 0,-24.19024 0,-48.3991 0,-72.86786 -34.50931,0 -68.87207,0 -103.49942,0 z"
         id="path4"
         style="stroke-width:0.264583" />
      <path
         fill="#4dcad3"
         opacity="1"
         stroke="none"
         d="m 615.98455,322.42817 c 0,10.47284 0,20.6811 0,30.94064 1.17578,0.20378 2.13477,0.28713 3.04491,0.54364 2.50388,0.7057 4.16171,3.32814 3.82092,5.92701 -0.32525,2.48044 -2.45618,4.42254 -5.08635,4.45937 -4.12411,0.0577 -8.24963,0.0153 -12.65036,0.0153 0,-78.99487 0,-157.75154 0,-236.50819 -0.18532,-0.0283 -0.37066,-0.0567 -0.55597,-0.085 -6.55323,21.21547 -13.10648,42.43092 -19.70127,63.78105 5.29037,4.00672 8.54797,9.17398 9.04618,15.79645 0.3606,4.79361 -0.78451,9.26071 -3.55457,13.25898 -5.68195,8.20135 -15.81541,11.28798 -24.97505,7.61188 -8.55589,-3.43374 -14.47028,-12.48701 -12.70828,-23.03833 1.28497,-7.69469 8.22081,-17.28211 21.90316,-17.13264 1.11582,-3.58532 2.26483,-7.2534 3.39915,-10.92605 5.58295,-18.07652 11.16206,-36.15417 16.74207,-54.23158 0.8895,-2.88168 2.4325,-5.28473 5.14884,-6.7509 5.92577,-3.19838 11.97833,-0.72662 14.72618,4.73249 1.13395,2.25276 1.39899,4.69909 1.39936,7.18351 0.003,13.6669 0,27.33379 0,41.00068 2e-5,51.05239 0,102.1048 0,153.42174 z"
         id="path5"
         style="stroke-width:0.264583" />
    </g>
  </g>
</svg>
